<svg width="44" height="32" viewBox="0 0 44 32" fill="none" xmlns="http://www.w3.org/2000/svg">
<path d="M44 15.8232C44 15.7152 44 15.5923 43.9951 15.4499C43.9902 15.052 43.9804 14.6049 43.9705 14.1284C43.9313 12.7578 43.8625 11.3921 43.7545 10.1051C43.6071 8.33164 43.3911 6.85297 43.0964 5.74274C42.7855 4.58412 42.176 3.52743 41.3289 2.67829C40.4818 1.82915 39.4268 1.2173 38.2692 0.903904C36.8795 0.530552 34.1589 0.299664 30.3286 0.157201C28.5067 0.0884252 26.5571 0.0442124 24.6076 0.0196498C23.925 0.00982474 23.2915 0.00491252 22.7219 0H21.2781C20.7085 0.00491252 20.075 0.00982474 19.3924 0.0196498C17.4429 0.0442124 15.4933 0.0884252 13.6714 0.157201C9.84107 0.304576 7.11562 0.535465 5.7308 0.903904C4.57286 1.21653 3.51739 1.82812 2.67017 2.67738C1.82295 3.52664 1.21373 4.58374 0.903571 5.74274C0.604018 6.85297 0.392857 8.33164 0.245536 10.1051C0.1375 11.3921 0.0687499 12.7578 0.0294642 14.1284C0.0147321 14.6049 0.00982135 15.052 0.00491064 15.4499C0.00491064 15.5923 0 15.7152 0 15.8232V16.0983C0 16.2064 -7.50047e-08 16.3292 0.00491064 16.4717C0.00982135 16.8696 0.0196428 17.3166 0.0294642 17.7932C0.0687499 19.1637 0.1375 20.5294 0.245536 21.8165C0.392857 23.5899 0.608929 25.0686 0.903571 26.1788C1.53214 28.5319 3.37857 30.3889 5.7308 31.0177C7.11562 31.391 9.84107 31.6219 13.6714 31.7644C15.4933 31.8331 17.4429 31.8774 19.3924 31.9019C20.075 31.9117 20.7085 31.9167 21.2781 31.9216H22.7219C23.2915 31.9167 23.925 31.9117 24.6076 31.9019C26.5571 31.8774 28.5067 31.8331 30.3286 31.7644C34.1589 31.617 36.8844 31.3861 38.2692 31.0177C40.6214 30.3889 42.4679 28.5368 43.0964 26.1788C43.396 25.0686 43.6071 23.5899 43.7545 21.8165C43.8625 20.5294 43.9313 19.1637 43.9705 17.7932C43.9853 17.3166 43.9902 16.8696 43.9951 16.4717C43.9951 16.3292 44 16.2064 44 16.0983V15.8232ZM40.4643 16.0787C40.4643 16.1818 40.4643 16.2948 40.4594 16.4275C40.4545 16.8106 40.4446 17.2331 40.4348 17.69C40.4004 18.9967 40.3317 20.3035 40.2286 21.5168C40.096 23.0987 39.9094 24.3956 39.6786 25.2651C39.3741 26.3999 38.4804 27.2989 37.3509 27.5986C36.3196 27.8737 33.7219 28.0947 30.1911 28.2274C28.4036 28.2961 26.4786 28.3403 24.5585 28.3649C23.8857 28.3747 23.2621 28.3796 22.7022 28.3796H21.2978L19.4415 28.3649C17.5214 28.3403 15.6013 28.2961 13.8089 28.2274C10.2781 28.0898 7.67545 27.8737 6.64911 27.5986C5.51964 27.294 4.62589 26.3999 4.32143 25.2651C4.09062 24.3956 3.90402 23.0987 3.77143 21.5168C3.6683 20.3035 3.60446 18.9967 3.56518 17.69C3.55045 17.2331 3.54554 16.8057 3.54063 16.4275C3.54063 16.2948 3.53571 16.1769 3.53571 16.0787V15.8429C3.53571 15.7397 3.53571 15.6267 3.54063 15.4941C3.54554 15.1109 3.55536 14.6884 3.56518 14.2316C3.59955 12.9248 3.6683 11.6181 3.77143 10.4047C3.90402 8.82289 4.09062 7.52598 4.32143 6.65647C4.62589 5.52167 5.51964 4.62268 6.64911 4.32302C7.68036 4.04792 10.2781 3.82685 13.8089 3.69422C15.5964 3.62544 17.5214 3.58123 19.4415 3.55667C20.1143 3.54684 20.7379 3.54193 21.2978 3.54193H22.7022L24.5585 3.55667C26.4786 3.58123 28.3987 3.62544 30.1911 3.69422C33.7219 3.83177 36.3246 4.04792 37.3509 4.32302C38.4804 4.6276 39.3741 5.52167 39.6786 6.65647C39.9094 7.52598 40.096 8.82289 40.2286 10.4047C40.3317 11.6181 40.3955 12.9248 40.4348 14.2316C40.4496 14.6884 40.4545 15.1158 40.4594 15.4941C40.4594 15.6267 40.4643 15.7446 40.4643 15.8429V16.0787ZM17.6295 22.5436L29.0223 15.9117L17.6295 9.378V22.5436Z" fill="white"/>
</svg>
