<svg width="30" height="30" viewBox="0 0 30 30" fill="none" xmlns="http://www.w3.org/2000/svg">
<path d="M28.3333 0H1.66667C1.22464 0 0.800716 0.175595 0.488155 0.488155C0.175595 0.800716 0 1.22464 0 1.66667V28.3333C0 28.7754 0.175595 29.1993 0.488155 29.5118C0.800716 29.8244 1.22464 30 1.66667 30H28.3333C28.7754 30 29.1993 29.8244 29.5118 29.5118C29.8244 29.1993 30 28.7754 30 28.3333V1.66667C30 1.22464 29.8244 0.800716 29.5118 0.488155C29.1993 0.175595 28.7754 0 28.3333 0ZM8.89833 25.5617H4.445V11.245H8.89833V25.5617ZM6.67167 9.29C5.98741 9.29 5.33117 9.01818 4.84733 8.53434C4.36349 8.05049 4.09167 7.39426 4.09167 6.71C4.09167 6.02574 4.36349 5.36951 4.84733 4.88566C5.33117 4.40182 5.98741 4.13 6.67167 4.13C7.35592 4.13 8.01216 4.40182 8.496 4.88566C8.97985 5.36951 9.25167 6.02574 9.25167 6.71C9.25167 7.39426 8.97985 8.05049 8.496 8.53434C8.01216 9.01818 7.35592 9.29 6.67167 9.29ZM25.5633 25.5617H21.115V18.6C21.115 16.94 21.085 14.805 18.8017 14.805C16.485 14.805 16.1333 16.615 16.1333 18.4833V25.5633H11.6883V11.2467H15.955V13.2033H16.0167C16.6083 12.0783 18.0617 10.8917 20.2233 10.8917C24.73 10.8917 25.5617 13.855 25.5617 17.7117V25.5617H25.5633Z" fill="white"/>
</svg>
