<svg width="32" height="32" viewBox="0 0 32 32" fill="none" xmlns="http://www.w3.org/2000/svg">
<path d="M30.0044 0.25H1.99562C1.53372 0.253434 1.0917 0.438451 0.765077 0.765077C0.438451 1.0917 0.253434 1.53372 0.25 1.99562V30.0044C0.253434 30.4663 0.438451 30.9083 0.765077 31.2349C1.0917 31.5615 1.53372 31.7466 1.99562 31.75H17.0763V19.57H12.9812V14.8056H17.0763V11.3013C17.0763 7.2325 19.5569 5.01438 23.2056 5.01438C24.4263 5.01438 25.6469 5.01438 26.8675 5.19812V9.4375H24.3606C22.3788 9.4375 21.9981 10.3825 21.9981 11.7606V14.7925H26.7231L26.1063 19.5569H21.9981V31.75H30.0044C30.4663 31.7466 30.9083 31.5615 31.2349 31.2349C31.5615 30.9083 31.7466 30.4663 31.75 30.0044V1.99562C31.7466 1.53372 31.5615 1.0917 31.2349 0.765077C30.9083 0.438451 30.4663 0.253434 30.0044 0.25Z" fill="white"/>
</svg>
