<svg width="39" height="35" viewBox="0 0 39 35" fill="none" xmlns="http://www.w3.org/2000/svg">
<path d="M12.0839 34.5H11.9139C8.48915 34.47 5.11394 33.6788 2.03263 32.1837C1.46584 31.9175 0.999157 31.4768 0.700904 30.9262C0.40265 30.3756 0.288489 29.7439 0.375133 29.1237C0.469365 28.4993 0.758456 27.9207 1.20113 27.4704C1.64381 27.0201 2.21744 26.7211 2.84013 26.6162C4.74968 26.3615 6.58669 25.7178 8.23763 24.725C5.37135 22.484 3.16473 19.5093 1.85162 16.1162C0.538517 12.7231 0.167842 9.0379 0.778883 5.45123C0.861732 4.88312 1.10606 4.35077 1.48278 3.91753C1.85951 3.4843 2.35278 3.16842 2.90388 3.00748C3.44005 2.8391 4.01387 2.8319 4.55409 2.98679C5.09431 3.14168 5.57714 3.45183 5.94263 3.87873C7.18364 5.50602 8.74316 6.86343 10.5261 7.86813C12.309 8.87284 14.2779 9.50379 16.3126 9.72248C16.4098 7.21892 17.4857 4.8535 19.3089 3.13498C20.2192 2.26325 21.294 1.58142 22.4705 1.12921C23.647 0.677007 24.9017 0.463471 26.1616 0.501049C27.4215 0.538627 28.6612 0.826568 29.8087 1.34809C30.9562 1.86962 31.9884 2.61429 32.8451 3.53873C33.0684 3.73608 33.3457 3.86184 33.6412 3.89973C33.9368 3.93762 34.2368 3.88589 34.5026 3.75123C35.0093 3.51227 35.5735 3.42232 36.1293 3.49186C36.6852 3.56141 37.2098 3.7876 37.642 4.14403C38.0742 4.50046 38.3961 4.97244 38.5701 5.5049C38.7442 6.03736 38.7633 6.60834 38.6251 7.15123C38.135 9.17023 37.2064 11.0565 35.9051 12.6762C35.6183 18.7213 32.9532 24.4079 28.4909 28.496C24.0286 32.5842 18.1309 34.7424 12.0839 34.5ZM12.0839 30.25H12.2539C14.7246 30.335 17.1875 29.9287 19.5 29.0546C21.8124 28.1806 23.9284 26.8562 25.7252 25.1582C27.522 23.4603 28.9638 21.4226 29.9672 19.1632C30.9705 16.9038 31.5153 14.4678 31.5701 11.9962C31.6052 11.3189 31.8845 10.6772 32.3564 10.19C32.8747 9.53388 33.3167 8.82097 33.6739 8.06498C32.9084 8.06644 32.1511 7.90631 31.4517 7.59505C30.7523 7.2838 30.1265 6.82844 29.6151 6.25873C29.1234 5.77116 28.5393 5.38658 27.8972 5.12752C27.255 4.86845 26.5675 4.7401 25.8751 4.74998C25.1758 4.7319 24.4798 4.85212 23.827 5.10374C23.1743 5.35536 22.5776 5.73342 22.0714 6.21623C21.3884 6.86436 20.8876 7.6805 20.619 8.58298C20.3505 9.48547 20.3238 10.4426 20.5414 11.3587L21.0939 13.7812L18.6076 13.9512C16.06 14.159 13.4976 13.8105 11.0979 12.9299C8.69826 12.0493 6.51869 10.6576 4.71013 8.85123C4.63257 11.6486 5.33234 14.4126 6.73163 16.8361C8.13093 19.2595 10.1749 21.2474 12.6364 22.5787L14.6551 23.7262L13.3164 25.6387C11.8686 27.5375 9.8849 28.9586 7.62138 29.7187C9.07342 30.0827 10.5657 30.2612 12.0626 30.25H12.0839Z" fill="white"/>
</svg>
